<svg xmlns="http://www.w3.org/2000/svg" width="586.93359375px" height="692px" class="sequence hand"><desc>Here is a title</desc><defs><marker viewBox="0 0 5 5" markerWidth="5" markerHeight="5" orient="auto" refX="5" refY="2.5" id="markerArrowBlock"><path d="M 0 0 L 5 2.5 L 0 5 z"/></marker><marker viewBox="0 0 9.6 16" markerWidth="4" markerHeight="16" orient="auto" refX="9.6" refY="8" id="markerArrowOpen"><path d="M 9.6,8 1.92,16 0,13.7 5.76,8 0,2.286 1.92,0 9.6,8 z"/></marker></defs><g class="title"><path d="M10,10C66.6,15.1 67.0,4.9 137.5,10.0C138.8,34.8 136.1,33.0 137.5,43.0C60.0,37.9 117.1,48.1 10.0,43.0C11.3,15.3 8.7,28.0 10.0,10.0" stroke="#000000" fill="#ffffff" style="stroke-width: 2;"/><text x="15" y="29" style="font-size: 16px; font-family: danielbd;"><tspan x="15">Here is a title</tspan></text></g><g class="actor"><path d="M118.5078125,53C133.9,54.3 126.4,51.7 151.6,53.0C149.9,71.6 153.3,89.1 151.6,96.0C141.5,94.7 129.4,97.3 118.5,96.0C116.8,89.1 120.2,59.9 118.5,53.0" stroke="#000000" fill="#ffffff" style="stroke-width: 2;"/><text x="128.5078125" y="77" style="font-size: 16px; font-family: danielbd;"><tspan x="128.5078125">A</tspan></text></g><g class="actor"><path d="M118.5078125,629C143.6,627.7 134.3,630.3 151.6,629.0C153.3,639.5 149.9,643.4 151.6,672.0C125.8,670.7 143.0,673.3 118.5,672.0C116.8,635.9 120.2,643.3 118.5,629.0" stroke="#000000" fill="#ffffff" style="stroke-width: 2;"/><text x="128.5078125" y="653" style="font-size: 16px; font-family: danielbd;"><tspan x="128.5078125">A</tspan></text></g><path d="M135.0,96.0C156.4,320.1 113.7,181.3 135.0,629.0" stroke="#000000" fill="none" style="stroke-width: 2;"/><g class="actor"><path d="M274.046875,53C295.5,54.4 304.2,51.6 310.3,53.0C312.0,65.7 308.5,83.8 310.3,96.0C282.7,97.4 288.5,94.6 274.0,96.0C272.3,85.7 275.8,63.3 274.0,53.0" stroke="#000000" fill="#ffffff" style="stroke-width: 2;"/><text x="284.046875" y="77" style="font-size: 16px; font-family: danielbd;"><tspan x="284.046875">B</tspan></text></g><g class="actor"><path d="M274.046875,629C301.6,630.4 282.7,627.6 310.3,629.0C312.0,655.4 308.5,639.3 310.3,672.0C279.8,670.6 304.5,673.4 274.0,672.0C275.8,642.0 272.3,655.2 274.0,629.0" stroke="#000000" fill="#ffffff" style="stroke-width: 2;"/><text x="284.046875" y="653" style="font-size: 16px; font-family: danielbd;"><tspan x="284.046875">B</tspan></text></g><path d="M292.2,96.0C270.8,543.7 313.5,181.3 292.2,629.0" stroke="#000000" fill="none" style="stroke-width: 2;"/><g class="actor"><path d="M391.8359375,53C415.5,54.5 412.5,51.5 428.6,53.0C430.3,89.1 426.9,83.4 428.6,96.0C399.2,94.5 420.0,97.5 391.8,96.0C393.6,79.9 390.1,63.3 391.8,53.0" stroke="#000000" fill="#ffffff" style="stroke-width: 2;"/><text x="401.8359375" y="77" style="font-size: 16px; font-family: danielbd;"><tspan x="401.8359375">C</tspan></text></g><g class="actor"><path d="M391.8359375,629C416.1,627.5 422.7,630.5 428.6,629.0C426.9,635.9 430.3,650.7 428.6,672.0C405.7,670.5 407.4,673.5 391.8,672.0C393.6,635.9 390.1,643.7 391.8,629.0" stroke="#000000" fill="#ffffff" style="stroke-width: 2;"/><text x="401.8359375" y="653" style="font-size: 16px; font-family: danielbd;"><tspan x="401.8359375">C</tspan></text></g><path d="M410.2,96.0C431.5,223.9 388.9,181.3 410.2,629.0" stroke="#000000" fill="none" style="stroke-width: 2;"/><g class="actor"><path d="M519.12890625,53C549.7,54.5 547.9,51.5 556.9,53.0C555.2,75.4 558.7,79.9 556.9,96.0C538.1,94.5 550.9,97.5 519.1,96.0C517.4,73.8 520.8,79.4 519.1,53.0" stroke="#000000" fill="#ffffff" style="stroke-width: 2;"/><text x="529.12890625" y="77" style="font-size: 16px; font-family: danielbd;"><tspan x="529.12890625">D</tspan></text></g><g class="actor"><path d="M519.12890625,629C528.3,627.5 537.8,630.5 556.9,629.0C558.7,664.6 555.2,661.7 556.9,672.0C538.4,673.5 547.1,670.5 519.1,672.0C520.8,651.9 517.4,665.1 519.1,629.0" stroke="#000000" fill="#ffffff" style="stroke-width: 2;"/><text x="529.12890625" y="653" style="font-size: 16px; font-family: danielbd;"><tspan x="529.12890625">D</tspan></text></g><path d="M538.0,96.0C516.7,543.7 559.4,181.3 538.0,629.0" stroke="#000000" fill="none" style="stroke-width: 2;"/><g class="signal"><text x="193.7265625" y="123.5" style="font-size: 16px; font-family: danielbd;"><tspan x="193.7265625">Hello</tspan></text><path d="M135.0,139.0C252.4,132.7 172.8,145.3 292.2,139.0" stroke="#000000" fill="none" style="stroke-width: 2; marker-end: url(&quot;#markerArrowBlock&quot;);"/></g><g class="signal"><text x="193.7265625" y="166.5" style="font-size: 16px; font-family: danielbd;"><tspan x="193.7265625">Hello</tspan></text><path d="M135.0,182.0C189.5,188.3 160.2,175.7 292.2,182.0" stroke="#000000" fill="none" style="stroke-width: 2; stroke-dasharray: 6, 2; marker-end: url(&quot;#markerArrowBlock&quot;);"/></g><g class="note"><path d="M20,202C92.2,205.8 51.8,198.2 115.0,202.0C113.7,224.6 116.4,225.9 115.0,235.0C38.6,231.2 99.8,238.8 20.0,235.0C21.3,227.9 18.7,218.3 20.0,202.0" stroke="#000000" fill="#ffffff" style="stroke-width: 2;"/><text x="25" y="221" style="font-size: 16px; font-family: danielbd;"><tspan x="25">Left note</tspan></text></g><g class="note"><path d="M155.046875,255C206.0,258.8 170.7,251.2 250.1,255.0C248.8,275.7 251.4,282.7 250.1,288.0C227.3,291.8 231.5,284.2 155.0,288.0C153.7,260.3 156.4,282.7 155.0,255.0" stroke="#000000" fill="#ffffff" style="stroke-width: 2;"/><text x="160.046875" y="274" style="font-size: 16px; font-family: danielbd;"><tspan x="160.046875">right note</tspan></text></g><g class="note"><path d="M89.7265625,308C104.2,311.6 121.5,304.4 180.4,308.0C181.7,319.8 179.0,335.7 180.4,341.0C158.6,344.6 165.9,337.4 89.7,341.0C88.4,317.2 91.0,313.3 89.7,308.0" stroke="#000000" fill="#ffffff" style="stroke-width: 2;"/><text x="94.7265625" y="327" style="font-size: 16px; font-family: danielbd;"><tspan x="94.7265625">over note</tspan></text></g><g class="note"><path d="M125.046875,361C167.6,353.9 192.2,368.1 302.2,361.0C300.8,378.9 303.5,371.4 302.2,394.0C169.3,386.9 179.0,401.1 125.0,394.0C123.7,386.1 126.4,378.8 125.0,361.0" stroke="#000000" fill="#ffffff" style="stroke-width: 2;"/><text x="130.046875" y="380" style="font-size: 16px; font-family: danielbd;"><tspan x="130.046875">over both A and B</tspan></text></g><g class="signal"><text x="193.7265625" y="421.5" style="font-size: 16px; font-family: danielbd;"><tspan x="193.7265625">Hello</tspan></text><path d="M135.0,437.0C267.0,430.7 254.4,443.3 292.2,437.0" stroke="#000000" fill="none" style="stroke-width: 2; marker-end: url(&quot;#markerArrowBlock&quot;);"/></g><g class="signal"><text x="165.546875" y="464.5" style="font-size: 16px; font-family: danielbd;"><tspan x="165.546875">Normal line</tspan></text><path d="M135.0,480.0C267.0,486.3 245.6,473.7 292.2,480.0" stroke="#000000" fill="none" style="stroke-width: 2; marker-end: url(&quot;#markerArrowBlock&quot;);"/></g><g class="signal"><text x="302.15625" y="507.5" style="font-size: 16px; font-family: danielbd;"><tspan x="302.15625">Dashed line</tspan></text><path d="M292.2,523.0C337.9,527.7 326.4,518.3 410.2,523.0" stroke="#000000" fill="none" style="stroke-width: 2; stroke-dasharray: 6, 2; marker-end: url(&quot;#markerArrowBlock&quot;);"/></g><g class="signal"><text x="420.203125" y="550.5" style="font-size: 16px; font-family: danielbd;"><tspan x="420.203125">Open arrow</tspan></text><path d="M410.2,566.0C517.6,560.9 430.7,571.1 538.0,566.0" stroke="#000000" fill="none" style="stroke-width: 2; marker-end: url(&quot;#markerArrowOpen&quot;);"/></g><g class="signal"><text x="249.7421875" y="593.5" style="font-size: 16px; font-family: danielbd;"><tspan x="249.7421875">Dashed open arrow</tspan></text><path d="M538.0,609.0C199.5,625.1 319.3,592.9 135.0,609.0" stroke="#000000" fill="none" style="stroke-width: 2; stroke-dasharray: 6, 2; marker-end: url(&quot;#markerArrowOpen&quot;);"/></g></svg>